<svg xmlns="http://www.w3.org/2000/svg" viewBox="0 0 64 64"><rect width="64" height="64" rx="14" fill="#141312"/><g fill="#c8ad86"><rect x="12.5" y="12.5" width="3.4" height="3.4"/><rect x="16.9" y="12.5" width="3.4" height="3.4"/><rect x="43.3" y="12.5" width="3.4" height="3.4"/><rect x="47.7" y="12.5" width="3.4" height="3.4"/><rect x="12.5" y="16.9" width="3.4" height="3.4"/><rect x="16.9" y="16.9" width="3.4" height="3.4"/><rect x="21.3" y="16.9" width="3.4" height="3.4"/><rect x="38.9" y="16.9" width="3.4" height="3.4"/><rect x="43.3" y="16.9" width="3.4" height="3.4"/><rect x="47.7" y="16.9" width="3.4" height="3.4"/><rect x="12.5" y="21.3" width="3.4" height="3.4"/><rect x="16.9" y="21.3" width="3.4" height="3.4"/><rect x="21.3" y="21.3" width="3.4" height="3.4"/><rect x="25.7" y="21.3" width="3.4" height="3.4"/><rect x="34.5" y="21.3" width="3.4" height="3.4"/><rect x="38.9" y="21.3" width="3.4" height="3.4"/><rect x="43.3" y="21.3" width="3.4" height="3.4"/><rect x="47.7" y="21.3" width="3.4" height="3.4"/><rect x="12.5" y="25.7" width="3.4" height="3.4"/><rect x="16.9" y="25.7" width="3.4" height="3.4"/><rect x="25.7" y="25.7" width="3.4" height="3.4"/><rect x="30.1" y="25.7" width="3.4" height="3.4"/><rect x="34.5" y="25.7" width="3.4" height="3.4"/><rect x="43.3" y="25.7" width="3.4" height="3.4"/><rect x="47.7" y="25.7" width="3.4" height="3.4"/><rect x="12.5" y="30.1" width="3.4" height="3.4"/><rect x="16.9" y="30.1" width="3.4" height="3.4"/><rect x="30.1" y="30.1" width="3.4" height="3.4"/><rect x="43.3" y="30.1" width="3.4" height="3.4"/><rect x="47.7" y="30.1" width="3.4" height="3.4"/><rect x="12.5" y="34.5" width="3.4" height="3.4"/><rect x="16.9" y="34.5" width="3.4" height="3.4"/><rect x="43.3" y="34.5" width="3.4" height="3.4"/><rect x="47.7" y="34.5" width="3.4" height="3.4"/><rect x="12.5" y="38.9" width="3.4" height="3.4"/><rect x="16.9" y="38.9" width="3.4" height="3.4"/><rect x="43.3" y="38.9" width="3.4" height="3.4"/><rect x="47.7" y="38.9" width="3.4" height="3.4"/><rect x="12.5" y="43.3" width="3.4" height="3.4"/><rect x="16.9" y="43.3" width="3.4" height="3.4"/><rect x="43.3" y="43.3" width="3.4" height="3.4"/><rect x="47.7" y="43.3" width="3.4" height="3.4"/><rect x="12.5" y="47.7" width="3.4" height="3.4"/><rect x="16.9" y="47.7" width="3.4" height="3.4"/><rect x="43.3" y="47.7" width="3.4" height="3.4"/><rect x="47.7" y="47.7" width="3.4" height="3.4"/></g></svg>
